<?xml version="1.0" standalone="no"?><!DOCTYPE svg PUBLIC "-//W3C//DTD SVG 1.1//EN" "http://www.w3.org/Graphics/SVG/1.1/DTD/svg11.dtd"><svg t="1533523628578" class="icon" style="" viewBox="0 0 1024 1024" version="1.1" xmlns="http://www.w3.org/2000/svg" p-id="1573" xmlns:xlink="http://www.w3.org/1999/xlink" width="200" height="200"><defs><style type="text/css">html, * { user-select: text !important; }
</style></defs><path d="M36.6 848.5V118.3c0-50.3 38.6-91.3 86-91.3h677.8c47.4 0 86 40.9 86 91.3v409.9H850V118.3c0-30.2-22.2-54.8-49.5-54.8H122.7c-27.3 0-49.5 24.6-49.5 54.8v730.3c0 30.2 22.2 54.8 49.5 54.8h333v36.5h-333c-47.5-0.1-86.1-41-86.1-91.4z" fill="#ffffff" p-id="1574"></path><path d="M695.7 896.5c-91.3 0-165.6-74.3-165.6-165.6s74.3-165.6 165.6-165.6 165.6 74.3 165.6 165.6S787 896.5 695.7 896.5z m0-291.2c-69.3 0-125.6 56.3-125.6 125.6s56.3 125.6 125.6 125.6 125.6-56.3 125.6-125.6-56.4-125.6-125.6-125.6z" fill="#ffffff" p-id="1575"></path><path d="M936.8 934.1c-7.4 8.2-20.1 8.8-28.2 1.5L793 831.5c-8.2-7.4-8.8-20.1-1.5-28.2 7.4-8.2 20.1-8.8 28.2-1.5l115.5 104.1c8.3 7.3 9 20 1.6 28.2zM677 269.1H237c-11 0-20-9-20-20s9-20 20-20h440c11 0 20 9 20 20s-9 20-20 20zM436.6 675.5h-160c-11 0-20-9-20-20s9-20 20-20h160c11 0 20 9 20 20s-9 20-20 20zM677 467.1H237c-11 0-20-9-20-20s9-20 20-20h440c11 0 20 9 20 20s-9 20-20 20z" fill="#ffffff" p-id="1576"></path></svg>