<?xml version="1.0" standalone="no"?><!DOCTYPE svg PUBLIC "-//W3C//DTD SVG 1.1//EN" "http://www.w3.org/Graphics/SVG/1.1/DTD/svg11.dtd"><svg t="1533524819746" class="icon" style="" viewBox="0 0 1024 1024" version="1.1" xmlns="http://www.w3.org/2000/svg" p-id="1928" xmlns:xlink="http://www.w3.org/1999/xlink" width="200" height="200"><defs><style type="text/css">html, * { user-select: text !important; }
</style></defs><path d="M908.207787 548.978193 317.29246 548.978193c-20.315698 0-36.802184-16.550954-36.802184-36.968983 0-20.418029 16.486486-36.963866 36.802184-36.963866l590.914304 0c20.320814 0 36.807301 16.545838 36.807301 36.963866C945.014064 532.426215 928.528602 548.978193 908.207787 548.978193z" p-id="1929" fill="#ffffff"></path><path d="M908.207787 179.331341 317.29246 179.331341c-20.315698 0-36.802184-16.540721-36.802184-36.965913 0-20.418029 16.486486-36.963866 36.802184-36.963866l590.914304 0c20.320814 0 36.807301 16.545838 36.807301 36.963866C945.014064 162.789597 928.528602 179.331341 908.207787 179.331341z" p-id="1930" fill="#ffffff"></path><path d="M155.261133 805.394167c-42.116213 0-76.256778 34.143635-76.256778 76.258825 0 42.11519 34.141588 76.257801 76.256778 76.257801s76.258825-34.141588 76.258825-76.257801C231.519957 839.537801 197.377346 805.394167 155.261133 805.394167zM155.261133 917.539316c-19.786649 0-35.886325-16.099676-35.886325-35.887348 0-19.786649 16.098653-35.887348 35.886325-35.887348 19.788695 0 35.887348 16.101723 35.887348 35.887348C191.148481 901.43964 175.049828 917.539316 155.261133 917.539316z" p-id="1931" fill="#ffffff"></path><path d="M155.261133 435.753455c-42.116213 0-76.256778 34.141588-76.256778 76.255755 0 42.11826 34.141588 76.259848 76.256778 76.259848s76.258825-34.141588 76.258825-76.259848C231.519957 469.895043 197.377346 435.753455 155.261133 435.753455zM155.261133 547.896558c-19.786649 0-35.886325-16.09763-35.886325-35.887348 0-19.787672 16.098653-35.884278 35.886325-35.884278 19.788695 0 35.887348 16.096607 35.887348 35.884278C191.148481 531.798928 175.049828 547.896558 155.261133 547.896558z" p-id="1932" fill="#ffffff"></path><path d="M155.261133 66.089208c-42.126446 0-76.276221 34.150798-76.276221 76.275197 0 42.128493 34.149774 76.278267 76.276221 76.278267s76.278267-34.150798 76.278267-76.278267C231.5394 100.240005 197.387579 66.089208 155.261133 66.089208zM155.261133 178.26301c-19.791765 0-35.894512-16.10377-35.894512-35.897581 0-19.791765 16.102746-35.891442 35.894512-35.891442 19.793812 0 35.895535 16.1007 35.895535 35.891442C191.157691 162.15924 175.054945 178.26301 155.261133 178.26301z" p-id="1933" fill="#ffffff"></path><path d="M317.29246 844.689125l590.914304 0c20.320814 0 36.807301 16.543791 36.807301 36.963866s-16.486486 36.965913-36.807301 36.965913L317.29246 918.618904c-20.315698 0-36.802184-16.545838-36.802184-36.965913S296.976762 844.689125 317.29246 844.689125z" p-id="1934" fill="#ffffff"></path></svg>